<?xml version="1.0" encoding="UTF-8"?>
<svg xmlns="http://www.w3.org/2000/svg" viewBox="0 0 1619.4 614.3">
    <path
        d="M1432 16.04c-.4 1.3-.9 3-1.2 3.8-.2.8-.7 13.4-1 27.9-.5 23.9-.4 26.8 1.2 29.7.9 1.8 2.5 3.4 3.4 3.6s14.2.1 29.7-.2c21.7-.4 28.5-.8 29.7-1.9 1.5-1.2 1.7-4.7 1.7-31.7 0-26.2-.2-30.5-1.6-31.8-1.3-1.4-5.6-1.6-31.4-1.6h-29.8l-.7 2.2zM1532.8 15.04c-1.4 2.3-2.3 12-3.4 36-1 21.7-.9 23.9.7 26.3.9 1.4 2.4 2.9 3.3 3.3 2.6 1.2 61.1-1.1 61.9-2.5.4-.6.5-14.9.2-31.7-.4-25.8-.7-30.8-2-31.6-2.4-1.5-59.7-1.3-60.7.2zM.5 46.34c0 18.9.4 29.5 1 29.6s2.1.1 3.5.1 11.3 0 22-.1l19.5-.1v-4.9c0-3.5-.4-5.1-1.6-5.5-.9-.3-7.8-.6-15.5-.6H15.5v-48H.5v29.5zM56.5 46.34v29.4l23.1.3c12.7.2 23.4.1 23.8-.2.5-.3.8-2.8.7-5.5l-.1-5-16.7-.3-16.8-.2v-14h31v-4.4c0-4.1-1.6-6.9-3.6-6.5-.5.1-6.9.1-14.1 0l-13.3-.1v-12h15.9c8.8 0 16.2-.4 16.5-.8.3-.5.7-2.9 1-5.5l.6-4.7h-48v29.5zM111.2 17.44c-.7.7 0 2.6 3.9 10.9 1.5 3.3 2.9 6.4 3 7 .1.5 1.6 4.1 3.4 8 1.7 3.8 3.5 7.9 4 9s2.1 4.7 3.5 8c6 13.9 6.9 15.5 8.7 15.6h6.8c8.7 0 9 0 9.9-2.4.5-1.2 2.3-5.4 4.1-9.2 1.8-3.9 4-9 5-11.5s3.4-8 5.4-12.3 3.6-8.2 3.6-8.6 1.1-3 2.4-5.7c4.3-8.9 4.3-8.9-4.7-8.9h-7.8l-2.1 5c-1.1 2.7-2.9 6.9-3.9 9.2-1.1 2.4-1.9 4.5-1.9 4.9 0 .3-1.4 3.8-3.1 7.7-1.6 4-3.4 8.1-3.9 9.2-.4 1.1-1.1 2.8-1.4 3.7-.3 1-.9 1.8-1.4 1.8-.9 0-1.4-1.1-8.2-18-6.3-15.7-7-17.3-8-19.2-.6-1-1-2.5-1-3.3 0-1.2-1.5-1.5-7.8-1.5-4.3 0-8.1.3-8.5.6zM186.2 17.44c-.4.4-.7 13.5-.7 29 0 23.5.2 28.4 1.4 29.1.8.4 4.3.6 7.8.3l6.3-.5v-58l-7-.3c-3.9-.1-7.4 0-7.8.4zM211.5 20.74c0 7.4-.6 7.1 17.7 7.1 15.7 0 16.4.1 15.1 1.8-2 2.9-11.7 14.3-24.2 28.5-3.2 3.7-6.5 7.5-7.2 8.4-1.6 2.1-1.9 9-.4 9.5.5.1 12.9.2 27.5 0l26.6-.3-.3-5.2-.3-5.2-16.7-.3c-9.3-.1-16.8-.6-16.8-1s1.2-2.1 2.8-3.7c1.5-1.7 5.4-6.2 8.7-10 3.3-3.9 6.2-7.2 6.5-7.5s4.1-4.6 8.3-9.7c6.8-8 7.8-9.6 7.5-12.5l-.3-3.3-27.2-.3-27.3-.2v3.9zM304.3 39.94c-.3 21.5-.4 23.2-2.2 24.5-3.3 2.4-13.3 1.1-13.7-1.8-.1-.4-.2-1.2-.3-1.8-.3-2.3-2.7-3.1-8.7-2.8l-6.4.3.1 3.6c.1 4.3 3.4 9.3 7.5 11.4 1.6.9 6.1 2.2 10.1 2.9 6.4 1.2 7.8 1.2 13.4-.4 8.3-2.2 11.2-4.3 13.5-9.3 1.6-3.7 1.9-6.8 1.9-27v-22.7h-14.9l-.3 23.1zM349 24.34c-1.9 4.1-3.5 7.7-3.5 7.9 0 .3-1.6 4-3.6 8.3s-4.5 10-5.6 12.8c-1.9 5.1-6.1 14.5-7.9 17.7-2.2 4.2-1.3 4.8 6.9 4.8h7.7l1.9-4.8c3.8-9.6 3.1-9.2 16.6-9.2h11.9l2.1 4.6c1.1 2.6 2 5.2 2 5.9 0 2.7 3.1 3.8 9.8 3.6 3.6-.1 6.9-.4 7.3-.7.4-.2-.1-2.1-1.1-4.2-1.6-3.5-4.1-9.2-6-13.7-.5-1.1-2.3-5.1-3.9-8.8-1.7-3.8-3.1-7-3.1-7.2 0-.4-1.6-4.1-6.9-16-1-2.2-2.2-5-2.5-6.3-.7-2.1-1.3-2.2-9.7-2.2h-9l-3.4 7.5zm16 17c1.5 3.8 3.2 7.4 3.7 7.9 1.8 2.1.4 2.6-7.6 2.6h-8.4l3-7.3c4-9.9 5.1-11.9 5.8-11 .4.5 1.9 3.9 3.5 7.8zM670.4 102.24c-.3.4-4.8 1-10 1.6-5.2.5-10.5 1.2-11.9 1.5-1.4.2-4.1.8-6 1.1-12.5 2.1-32.4 10.1-44.5 17.7-19.5 12.4-33.2 31.1-37.6 51.2-4.3 20.1-2.9 40.6 3.6 53.6 6.2 12.2 19.9 24.4 35.5 31.6 9.6 4.5 13.9 6.3 15 6.3.5 0 1.8.4 2.8 1 2.6 1.4 11 4 13.2 4 1 0 2.1.4 2.4.9s1.8 1.1 3.3 1.4c4.2.9 16.2 3.7 20.8 4.8 4.7 1.2 16.6 3.7 21.5 4.5 5.9 1 17 5.3 17 6.6 0 .4.6.8 1.3.8s2.9 1.3 4.8 3c9.3 7.6 6.4 23.1-5.3 28.7-16.9 8.1-28.9 4.7-36.4-10.2-2.1-4.2-4.4-8.1-5.1-8.7-1.7-1.4-97-.5-98.4.9-1.5 1.5 1.3 20.7 4.2 28.3 2.6 7.1 12.6 23.4 17.5 28.6 4.1 4.3 13.2 10.8 17.9 12.8 2.2.9 4.7 2 5.5 2.4.8.5 4.2 1.6 7.5 2.6 3.3 1.1 6.9 2.2 8 2.6 4 1.5 20.9 5 34 7 9.7 1.5 29.4 1.5 39 .1 13.7-2 34-6.2 42.5-8.6 3-.9 6.7-1.9 8.3-2.2 1.5-.3 3-.9 3.3-1.4s1.2-.9 1.9-.9c2.1 0 18-7.7 24.5-11.8 16.6-10.5 29.2-26.9 33.9-44.2.7-2.5 1.7-6 2.3-7.9 1.4-4.5 1.4-29.6.1-34.1-.6-1.9-1.9-6-2.8-9-3.5-11.4-9.1-20.6-16.9-27.8-5.9-5.4-19.5-14.2-26.6-17.1-3-1.3-7.4-3.2-9.7-4.2-2.3-1.1-4.7-1.9-5.3-1.9s-4.8-1.1-9.3-2.5c-13.3-4.1-13.9-4.3-21.7-6-4.1-.9-8.8-2-10.5-2.5-1.6-.4-6.4-1.6-10.5-2.6-4.1-.9-8.4-2-9.5-2.4s-6-2-10.8-3.5c-12-3.9-15.6-7.8-14.8-16.5.3-3.4 3.2-6.2 9.6-9.4 4.6-2.2 6.7-2.6 14.1-2.6 7.7 0 9.1.3 11.9 2.4 1.8 1.4 3.9 4.4 4.9 6.9 3.2 8.4 2.5 8.2 40.6 7.9 45.4-.3 55.3-.9 58.6-3.5 2.3-1.8 2.5-2.5 2.1-7.6-.6-6.4-2.4-15.6-3.6-18.6-3.6-8.3-4.8-10.6-8.1-15.5-6.3-9.2-20.7-21.4-30.7-26-2.6-1.2-5.5-2.5-6.3-2.9s-4.2-1.6-7.5-2.5c-3.3-1-6.9-2.2-8-2.6-3-1.2-13-3.1-22-4.1-10.1-1.2-42.8-2.3-43.6-1.5zM979.7 112.24c-1.5 1.6-1.7 6.3-2 46.6l-.3 44.9-6.2.6c-3.4.3-12.9.5-21.2.3l-15-.3v-18.5c0-10.2.3-28.2.5-40 .5-23.4.2-25.3-5.1-29.2-5.5-4.1-13.9-4.8-58.1-4.8-32.3 0-41.9.3-42.5 1.2-.4.7-1.1 32.6-1.5 70.8s-1.1 93.8-1.6 123.5c-.9 60.2-.5 71.6 2.1 74.3 1.6 1.6 5.6 1.7 51.5 1.7 45.7 0 50-.1 53-1.8l3.2-1.8v-45.8c0-40.9.2-46 1.6-46.5 3.1-1.2 34.9-.7 36.2.6.9.9 1.2 12.5 1.2 45.9v44.8l2.4 2.8 2.4 2.8 43.2.4c42.6.3 57.5-.4 60.7-3.1 1.7-1.4 1.9-261.4.2-265.2-2.7-5.9-11.4-6.8-61.7-6.4-38.8.3-41.4.4-43 2.2zM33.4 111.24c-.2.2-7.3.6-15.7.9-9.8.3-15.8.9-16.5 1.6-.9.9-1.2 32.2-1.2 126.4 0 128.6.3 138.3 3.9 143.3 1.1 1.4 5 1.5 43.6.6 23.4-.5 57.8-.7 76.5-.5 46.8.6 62.8-1.5 83.9-11.2 14.3-6.5 30.5-20 35.1-29.1 1.1-2.1 2.3-4.1 2.7-4.4.3-.3 1.4-2.5 2.3-5s2.1-5.4 2.6-6.5c1.4-3 2.9-15.1 2.9-23.2 0-17.3-5-29.4-17.5-41.8-6.7-6.7-9.7-8.9-18-12.9-5.5-2.7-10.8-5.2-11.7-5.7-1-.5-2.7-.9-3.9-.9-1.6 0-1-.6 2.2-2.4 9.6-5.1 18.7-12.1 25.9-20.2 9.1-10.2 12-16 15.1-30.7 2.1-9.7-1.2-27.7-7.6-41.2-6.7-14.3-12.7-20.3-27-26.9-12.3-5.7-13.4-6.1-33-9.6-4.7-.8-143.7-1.4-144.6-.6zm90.3 54.5c1.3.5 4.8 1.7 7.9 2.7 12.6 3.9 18.2 11.2 18.7 24.3.9 21.2-10.7 31.9-38.2 35-13.4 1.6-13.1 2.2-14.1-30.7l-.7-26.2 3.2-3c3.1-2.9 3.6-3 12.1-3 4.8 0 9.8.4 11.1.9zm.6 99.6c5.3.9 10.6 1.9 11.7 2.4 10.6 4.7 11.2 5.1 15 11.1 2.8 4.3 2.9 5.1 3 16 0 13.1-1 16.2-7.2 22.2-6.8 6.5-15.5 9.4-31 10.3-11 .7-11.1.7-12.5-1.6-2.1-3.9-1.7-49.8.6-56.7l1.8-5.2h4.4c2.4 0 8.8.7 14.2 1.5zM337.6 112.24c-.6.7-2 4.2-3.2 7.7-1.1 3.5-2.4 7.3-2.8 8.4-.5 1.1-1.7 4.9-2.7 8.5-.9 3.6-2 6.9-2.4 7.5-.3.5-1.4 3.7-2.4 7s-2.2 6.9-2.7 8c-.4 1.1-4.9 14.6-10 30-5 15.4-9.5 28.9-9.9 30s-1.5 4.7-2.5 8c-.9 3.3-2.1 6.9-2.6 8-.4 1.1-1.6 4.5-2.5 7.5-.8 3-1.9 6.4-2.4 7.5-1.2 2.9-2.2 6-8.5 26-3.1 9.9-6.1 18.8-6.6 19.7-.5 1-.9 2.5-.9 3.3s-.4 2.3-.9 3.3c-.6.9-1.7 4.4-2.6 7.7-1 3.3-2.1 6.9-2.5 8-.5 1.1-1.6 4.7-2.5 8s-2.1 6.8-2.6 7.7c-.5 1-.9 2.4-.9 3.2 0 .7-1.8 6.9-4 13.6s-4 13-4 13.9c0 1-.3 2.1-.7 2.5-.4.3-1.5 3.7-2.4 7.4-1.9 7.2-1.5 8.6 2.9 10.3 2.8 1.1 94.6-1 97.9-2.2 1.5-.6 2.4-2 2.9-4.6.4-2.1 1-4.3 1.4-4.8.4-.6 1-2.4 1.3-4 .9-5.2 3.4-15 5.7-23l1.2-4 36.7-.4c35.3-.3 36.8-.3 37.4 1.5.4 1.1 1.4 3.9 2.2 6.4 1.9 5.4 3.3 12.2 4.5 21.3 1.6 11.9.4 11.4 25.5 12.2 29.2 1 84.1-.3 85.5-2 .7-.9.6-2.5-.4-5.6-.7-2.4-2-6.7-2.9-9.4-4.2-14-10-32.2-10.7-34-.4-1.1-1.6-4.7-2.5-8s-2-6.9-2.4-8c-2-4.9-4.1-12.1-4.1-13.8 0-.9-.4-1.7-1-1.7-.5 0-1-.7-1-1.6 0-1.5-2.5-10.1-4-13.9-.4-1.1-1.6-4.7-2.5-8s-2-6.9-2.5-8c-.4-1.1-1.6-4.7-2.5-8-1-3.3-2.1-6.9-2.6-8s-1.5-4.5-2.4-7.5-2.1-6.3-2.6-7.2c-.5-1-.9-2.5-.9-3.3s-.4-2.3-.9-3.3c-.6-.9-1.7-4.4-2.6-7.7-1-3.3-2.1-6.9-2.5-8s-5-14.8-10.1-30.5-9.6-29.2-10-30-1.5-4.2-2.5-7.5-2.1-6.5-2.4-7c-.4-.6-1.5-3.7-2.5-7s-2.1-6.5-2.5-7c-.3-.6-1.5-3.8-2.5-7.3-1.1-3.7-2.7-6.9-3.9-7.8-3-2.1-130.8-2.1-132.5 0zm69.2 58c2 2.2 5.8 15.1 5.7 19.8 0 .9.4 1.9.9 2.2s1.1 2.3 1.4 4.3c.3 2.1 1.3 6.9 2.2 10.8 2.4 10.5 3.3 14.3 4.9 22 .8 3.8 2 9 2.6 11.5 1.4 5.5 3.8 20.1 5 29.5.5 3.8 1.2 8.2 1.5 9.7l.7 2.8h-29.2c-27.4 0-29.2-.1-28.5-1.8.3-.9 1.3-5.3 2.1-9.7 1.9-9.8 2.8-14.1 4.8-22.5.9-3.6 2-8.3 2.5-10.5s1.7-6.9 2.6-10.5 2-8.3 2.4-10.5c1.7-7.5 5.3-22 6.1-24 .4-1.1 1.6-4.9 2.5-8.5s2.1-7.4 2.5-8.5 1.3-3.5 2-5.3c1.5-3.8 2.4-4 5.3-.8zM1120.2 111.54c-.3.5-.6 61.3-.8 135.1l-.4 134.4 2.4 1.9c2.3 1.9 4.3 2 50.2 1.9 40.5-.1 48.3-.4 50.9-1.6l3-1.5v-27.9c0-15.3.3-28.1.8-28.4.4-.2.9-6.6 1.1-14.2.1-7.6.4-14.1.6-14.4s.7-4.8 1-10c.4-5.2.8-9.6.9-9.7.2-.2 6.3 11.8 13.7 26.5 7.3 14.7 13.6 26.9 13.9 27.2s4.2 7.9 8.8 17 10.5 20.5 13.1 25.5l4.9 9 56.2.3c57.9.2 59 .2 59-3.7 0-2.6-10.3-21.1-12.2-21.9-.5-.2-.8-.8-.8-1.3s-1.8-3.8-4-7.4-4-7-4-7.5c0-.6-.4-1-1-1-.5 0-1-.4-1-.9s-2-4.2-4.4-8.3c-2.5-4-5.7-9.6-7.2-12.3-3.4-6.4-19.5-34-24.6-42.2-2.1-3.4-3.8-6.5-3.8-6.8 0-.9-5.4-9-6.2-9.3-.5-.2-.8-.8-.8-1.4s-2.8-5.1-6.2-10.1l-6.1-9.1 2.4-4.5c1.3-2.5 4.6-8.1 7.2-12.5 5.2-8.6 8.7-14.6 12.5-21.6 1.3-2.5 2.7-5 3.2-5.5.6-.9 2.8-4.8 8.4-15 .6-1.1 1.3-2.2 1.6-2.5s1.7-2.8 3.1-5.5c4.6-8.6 9.1-17 9.9-18 .4-.6 2.2-3.7 4-7 6.6-12.3 7.5-14 8-14.5.6-.6 2.1-3.3 6.9-12.4 2.9-5.6 3.6-7.6 2.5-8-.7-.3-24.9-.8-53.7-1.2l-52.3-.7-2.6 2.6c-3 2.9-9.8 16.5-15.4 30.2-4.6 11.5-16.6 37.7-20.3 44.5-2.4 4.5-9.2 18.2-11.2 22.7-1.8 4.3-2.7 5.3-4.7 5.3h-2.5l.4-51.2.4-51.2-2.5-1.3c-1.9-1-14-1.3-52.2-1.3-27.3 0-49.9.3-50.1.7zM1409.2 199.54c-.4 48.7-.7 109.5-.7 135.1v46.5l2.3 2c2.1 1.8 3.2 1.9 20.7 1.4 51.8-1.7 128.7-2.9 154.1-2.4 28 .4 31.2.2 33.1-2.7 1.1-1.7 1-19.6-.4-44.3l-1.2-22.3-3.4-.6c-3.1-.6-74.8 1.2-93.4 2.3l-7.8.5v-41l30.8-.6c41-.8 61.5-1.6 62.7-2.6.7-.6.7-9.8.2-27.2-.7-20.9-1.1-26.6-2.3-27.8-1.2-1.3-5.5-1.5-26.2-1.4-13.6 0-34.3.4-46 .8l-21.4.7.4-6.8c.3-3.7 1.1-12.5 1.8-19.5l1.4-12.8 47.5.6c38.9.4 48.1.3 50.1-.8l2.5-1.4.3-32.2.2-32.2h-204.7l-.6 88.7z"></path>
    <path
        d="M45 1807.6c0-7 12-39 26-70 14-32 26-73 27-92s6-34 11-34c10 0 223-15 561-40 66-5 188-13 270-19 83-6 206-15 275-20 69-6 190-15 270-21s201-15 270-20c69-6 190-15 270-20s237-16 350-25c254-19 459-33 570-40 47-3 173-12 280-20s267-19 355-24c88-6 259-18 380-26s285-20 365-25 213-14 295-20c142-10 350-23 550-35 50-3 194-12 320-20 127-8 313-19 415-25 102-5 262-15 355-20 94-6 258-15 365-20s229-12 270-14c41-3 156-8 255-12s205-9 235-11 343-3 695-3c554 0 1151-11 1350-25 33-2 130-7 215-10 369-14 1292-62 1845-95 88-5 282-16 430-25 364-21 398-24 560-35 77-5 196-12 265-15s184-10 255-15c264-20 443-31 575-35 143-5 550-28 785-45 77-5 223-14 325-20l340-20c85-6 250-15 365-21 116-5 235-12 265-14s133-4 228-5c94 0 172-5 172-9 0-8 119-3 129 5 2 2-5 45-15 96-30 154-20 690 17 946 1 4 1 13 0 20-2 19-16141 18-16141-2z"
        style="fill:#e82d36" transform="matrix(.1 0 0 -.1 0 615)"></path>
    <circle cx="70.9" cy="5.9" r="5.9"></circle>
    <circle cx="88.1" cy="5.9" r="5.9"></circle>
    <path
        d="M13563.9 876c-30-6-144-45-205-71-11-5-54-20-95-35s-84-30-95-35c-11-4-42-16-70-25-27-9-64-23-82-31-17-8-37-14-45-14s-18-4-24-8c-5-4-27-14-49-21s-58-19-80-28c-121-47-220-83-229-83-4 0-24-7-44-16-52-22-70-30-127-49-27-9-59-20-70-25-11-4-54-20-95-34-41-15-83-31-92-37-10-5-23-9-29-9s-25-6-42-14c-18-7-54-21-82-31-27-9-59-20-70-25-11-4-54-20-95-35-41-14-84-30-95-35s-56-21-100-36-93-33-110-40c-16-6-64-24-105-39-41-14-82-30-91-35s-34-13-55-19c-22-6-48-18-59-26-18-14-15-15 50-10 39 4 90 10 115 15s97 16 160 25c63 8 138 20 165 25 28 5 100 16 160 25 61 8 133 20 160 25 28 5 102 16 165 24 63 9 131 18 150 21 147 23 234 36 290 45 85 14 171 27 300 46 58 9 130 19 160 24 62 10 244 37 335 51 110 16 269 40 325 49 30 5 100 14 155 20s109 15 120 20 40 11 65 13c25 3 95 13 155 22 61 9 135 21 165 25 30 5 105 16 165 25 61 9 137 20 170 25 150 23 284 43 330 50 28 5 102 16 165 25s138 21 165 25c28 5 88 13 135 19s96 14 110 17c23 6 56 11 185 29 122 17 225 38 225 45 0 5-78 10-172 10-95 1-198 3-228 5s-149 9-265 14c-115 6-280 15-365 21l-340 20c-102 6-246 15-320 20s-256 16-405 25c-148 8-295 17-325 19s-71 0-90-3z"
        style="fill:#6e171f" transform="matrix(.1 0 0 -.1 0 615)"></path>
</svg>